<svg width="40" height="40" viewBox="0 0 40 40" fill="none" xmlns="http://www.w3.org/2000/svg">
<path d="M20.0002 3.3335C10.8168 3.3335 3.3335 10.8168 3.3335 20.0002C3.3335 29.1835 10.8168 36.6668 20.0002 36.6668C29.1835 36.6668 36.6668 29.1835 36.6668 20.0002C36.6668 10.8168 29.1835 3.3335 20.0002 3.3335ZM25.6002 23.8335C26.0835 24.3168 26.0835 25.1168 25.6002 25.6002C25.3502 25.8502 25.0335 25.9668 24.7168 25.9668C24.4002 25.9668 24.0835 25.8502 23.8335 25.6002L20.0002 21.7668L16.1668 25.6002C15.9168 25.8502 15.6002 25.9668 15.2835 25.9668C14.9668 25.9668 14.6502 25.8502 14.4002 25.6002C14.1677 25.3649 14.0373 25.0475 14.0373 24.7168C14.0373 24.3861 14.1677 24.0687 14.4002 23.8335L18.2335 20.0002L14.4002 16.1668C14.1677 15.9316 14.0373 15.6142 14.0373 15.2835C14.0373 14.9528 14.1677 14.6354 14.4002 14.4002C14.8835 13.9168 15.6835 13.9168 16.1668 14.4002L20.0002 18.2335L23.8335 14.4002C24.3168 13.9168 25.1168 13.9168 25.6002 14.4002C26.0835 14.8835 26.0835 15.6835 25.6002 16.1668L21.7668 20.0002L25.6002 23.8335Z" fill="white"/>
</svg>
